<?xml version="1.0" encoding="utf-8"?>
<!-- Generator: Adobe Illustrator 15.1.0, SVG Export Plug-In . SVG Version: 6.00 Build 0)  -->
<!DOCTYPE svg PUBLIC "-//W3C//DTD SVG 1.1//EN" "http://www.w3.org/Graphics/SVG/1.1/DTD/svg11.dtd">
<svg version="1.1" id="Ebene_1" xmlns="http://www.w3.org/2000/svg" xmlns:xlink="http://www.w3.org/1999/xlink" x="0px" y="0px"
	 width="39.69px" height="39.69px" viewBox="0 0 39.69 39.69" enable-background="new 0 0 39.69 39.69" xml:space="preserve">
<g>
	
		<linearGradient id="path21_1_" gradientUnits="userSpaceOnUse" x1="-109.3408" y1="952.5439" x2="-98.6084" y2="953.3389" gradientTransform="matrix(1 0 0 1 123.585 -945.1816)">
		<stop  offset="0" style="stop-color:#A0151C"/>
		<stop  offset="0.6871" style="stop-color:#F4C39C"/>
		<stop  offset="1" style="stop-color:#A0151C"/>
	</linearGradient>
	<path id="path21" fill="url(#path21_1_)" d="M19.843,14.381c3.646,0,6.603-2.956,6.603-6.603c0-3.647-2.956-6.604-6.603-6.604
		c-3.647,0-6.604,2.957-6.604,6.604C13.239,11.425,16.195,14.381,19.843,14.381"/>
	
		<linearGradient id="polygon23_1_" gradientUnits="userSpaceOnUse" x1="-109.8428" y1="959.3145" x2="-99.11" y2="960.1094" gradientTransform="matrix(1 0 0 1 123.585 -945.1816)">
		<stop  offset="0" style="stop-color:#A0151C"/>
		<stop  offset="0.6871" style="stop-color:#F4C39C"/>
		<stop  offset="1" style="stop-color:#A0151C"/>
	</linearGradient>
	<polygon id="polygon23" fill="url(#polygon23_1_)" points="24.729,12.209 19.824,19.841 14.956,12.209 13.974,9.759 25.675,9.759 	
		"/>
	<path id="path25" fill="#FFFFFF" d="M19.843,12.966c2.864,0,5.188-2.323,5.188-5.188c0-2.866-2.323-5.189-5.188-5.189
		c-2.865,0-5.188,2.323-5.188,5.189C14.655,10.642,16.978,12.966,19.843,12.966"/>
</g>
</svg>
